# xmcd
#
# Track frame offsets:
#	150
#	17540
#	40623
#	61713
#	83455
#	100193
#	121963
#	143505
#	160403
#	178238
#	196820
#	217380
#	235170
#	250965
#	265788
#	292603
#	310670
#
# Disc length: 4404 seconds
#
# Revision: 1
# Processed by: cddbd v1.5.2PL0 Copyright (c) Steve Scherf et al.
# Submitted via: audiograbber 1.83.01
#
DISCID=da113211
DTITLE=Marla Glenn - The Best Of
DYEAR=1998
DGENRE=Blues
TTITLE0=The Cost Of Freedom
TTITLE1=Believer
TTITLE2=Personal
TTITLE3=Travel
TTITLE4=You Hurt Me
TTITLE5=Also Love You
TTITLE6=Love and Respect
TTITLE7=What About Our Kids
TTITLE8=Not Really Easy
TTITLE9=Promises
TTITLE10=Hot Love
TTITLE11=Our World
TTITLE12=Movin'
TTITLE13=It's A Man's Man's Man's World
TTITLE14=Ain't That A Shame (acoustic version)
TTITLE15=Not Rreally Easy (acoustic version)
TTITLE16=Center Of A Star (acoustic version)
EXTD=
EXTT0=
EXTT1=
EXTT2=
EXTT3=
EXTT4=
EXTT5=
EXTT6=
EXTT7=
EXTT8=
EXTT9=
EXTT10=
EXTT11=
EXTT12=
EXTT13=
EXTT14=
EXTT15=
EXTT16=
PLAYORDER=
